<svg xmlns="http://www.w3.org/2000/svg" viewBox="0 0 67.82 58.91"><defs><style>.cls-1{fill:#132326;}.cls-2{fill:#636565;}.cls-3{fill:#383b3b;}.cls-4{fill:#fff;}.cls-5{fill:#ff1623;}.cls-6{fill:#141314;}</style></defs><title>Auto Touch Ups Emblem</title><g id="Layer_2" data-name="Layer 2"><g id="Layer_1-2" data-name="Layer 1"><path class="cls-1" d="M66.76,6.61A91.52,91.52,0,0,0,33.92,1V57.47C70,43.84,66.76,6.61,66.76,6.61Z"/><path class="cls-2" d="M32.92,58.91V0h1A92.12,92.12,0,0,1,67.11,5.68l.59.22.06.63c0,.38,2.92,38.14-33.48,51.87ZM34.92,2V56C66,43.4,66,12.14,65.8,7.32A90.65,90.65,0,0,0,34.92,2Z"/><path class="cls-3" d="M1,6.61c.63,42.38,32.53,51,32.53,51l.38-.14V1A100.79,100.79,0,0,0,1,6.61Z"/><path class="cls-2" d="M33.58,58.66l-.3-.08C33,58.49.64,49.26,0,6.63V5.94l.64-.26A103.13,103.13,0,0,1,33.92,0h1V58.16ZM2,7.31c.86,36.58,25.87,47.27,30.9,49.05V2A101.92,101.92,0,0,0,2,7.31Z"/><path class="cls-4" d="M8.86,14.49h4.25a.88.88,0,0,1,.88.88v2.25a0,0,0,0,1,0,0H10.8a1.94,1.94,0,0,1-1.94-1.94V14.49A0,0,0,0,1,8.86,14.49Z"/><path class="cls-4" d="M55.8,14.49H59a0,0,0,0,1,0,0v2.25a.88.88,0,0,1-.88.88H53.86a0,0,0,0,1,0,0V16.43a1.94,1.94,0,0,1,1.94-1.94Z" transform="translate(112.85 32.1) rotate(-180)"/><path class="cls-5" d="M59.92,22.05,47.65,9.78A6.09,6.09,0,0,0,43.34,8h-9.5V41.24H57.06A3.93,3.93,0,0,0,61,37.31V24.62A3.63,3.63,0,0,0,59.92,22.05Z"/><path class="cls-4" d="M24.55,8a6.11,6.11,0,0,0-4.31,1.78L7.93,22.05a3.61,3.61,0,0,0-1.07,2.57V37.31a3.93,3.93,0,0,0,3.93,3.93H33.84V8Z"/><path class="cls-6" d="M24.11,10.24H44.39a2.32,2.32,0,0,1,1.86.93l4.22,5.57H17.38l5-5.7A2.33,2.33,0,0,1,24.11,10.24Z"/><path class="cls-6" d="M21.88,24.61H46l-1.82,4a1.94,1.94,0,0,1-1.77,1.14h-16a2,2,0,0,1-1.61-.85Z"/><path class="cls-6" d="M21.09,35.41H46.75L44,38.46a2.31,2.31,0,0,1-1.74.78H25.16a2.35,2.35,0,0,1-1.86-.92Z"/><path class="cls-6" d="M21.42,28.57s.33-3.5-4.42-4C17,24.61,16.92,29.16,21.42,28.57Z"/><path class="cls-6" d="M16.17,27.18s-7.62,2.14-7.6-2.57S15.42,24.53,16.17,27.18Z"/><path class="cls-6" d="M17.33,37.84A9.31,9.31,0,0,0,8.76,35a.36.36,0,0,0-.28.25c-.15.51-.22,1.77,2.65,2,3.28.3,4.41,1.49,6,1.1A.36.36,0,0,0,17.33,37.84Z"/><path class="cls-6" d="M46.43,28.57s-.34-3.5,4.41-4C50.84,24.61,50.93,29.16,46.43,28.57Z"/><path class="cls-6" d="M51.68,27.18s7.62,2.14,7.6-2.57S52.43,24.53,51.68,27.18Z"/><path class="cls-6" d="M50.52,37.84A9.3,9.3,0,0,1,59.08,35a.36.36,0,0,1,.29.25c.15.51.22,1.77-2.65,2-3.28.3-4.41,1.49-6,1.1A.35.35,0,0,1,50.52,37.84Z"/></g></g></svg>